<svg width="72" height="72" viewBox="0 0 72 72" fill="none" xmlns="http://www.w3.org/2000/svg">
<path fill-rule="evenodd" clip-rule="evenodd" d="M36 0.25C16.2563 0.25 0.25 16.2563 0.25 36C0.25 55.7437 16.2563 71.75 36 71.75C55.7437 71.75 71.75 55.7437 71.75 36C71.75 16.2563 55.7437 0.25 36 0.25ZM43.1727 25.2977C43.7648 24.6848 44.0923 23.8638 44.0849 23.0117C44.0775 22.1596 43.7357 21.3444 43.1332 20.7418C42.5306 20.1393 41.7154 19.7975 40.8633 19.7901C40.0112 19.7827 39.1902 20.1102 38.5773 20.7023L25.5773 33.7023C24.968 34.3117 24.6257 35.1382 24.6257 36C24.6257 36.8618 24.968 37.6883 25.5773 38.2977L38.5773 51.2978C39.1902 51.8898 40.0112 52.2173 40.8633 52.2099C41.7154 52.2025 42.5306 51.8607 43.1332 51.2582C43.7357 50.6556 44.0775 49.8404 44.0849 48.9883C44.0923 48.1362 43.7648 47.3152 43.1727 46.7023L32.4705 36L43.1727 25.2977Z" fill="black"/>
</svg>
