<svg width="31" height="31" viewBox="0 0 31 31" fill="none" xmlns="http://www.w3.org/2000/svg">
<path fill-rule="evenodd" clip-rule="evenodd" d="M15.75 0.25C24.0341 0.25 30.75 6.96591 30.75 15.25C30.75 23.5341 24.0341 30.25 15.75 30.25C7.46591 30.25 0.75 23.5341 0.75 15.25C0.75 6.96591 7.46591 0.25 15.75 0.25ZM12.7405 10.7595C12.4921 10.5024 12.3546 10.1579 12.3577 9.80036C12.3608 9.44282 12.5042 9.1008 12.7571 8.84797C13.0099 8.59515 13.3519 8.45173 13.7095 8.44863C14.067 8.44552 14.4115 8.58297 14.6686 8.83136L20.1232 14.2859C20.3788 14.5416 20.5224 14.8884 20.5224 15.25C20.5224 15.6116 20.3788 15.9584 20.1232 16.2141L14.6686 21.6686C14.4115 21.917 14.067 22.0545 13.7095 22.0514C13.3519 22.0483 13.0099 21.9049 12.7571 21.652C12.5042 21.3992 12.3608 21.0572 12.3577 20.6996C12.3546 20.3421 12.4921 19.9976 12.7405 19.7405L17.2309 15.25L12.7405 10.7595Z" fill="black"/>
</svg>
