<svg width="72" height="72" viewBox="0 0 72 72" fill="none" xmlns="http://www.w3.org/2000/svg">
<path d="M44.2334 26.3584L44.2426 26.3492L44.2517 26.3398C45.1169 25.444 45.5957 24.2441 45.5849 22.9987C45.5741 21.7532 45.0745 20.5619 44.1938 19.6812C43.3131 18.8005 42.1218 18.3009 40.8763 18.2901C39.6309 18.2793 38.431 18.7581 37.5352 19.6233L37.5258 19.6324L37.5166 19.6416L24.5166 32.6416L24.5164 32.6418C23.6259 33.5325 23.1257 34.7405 23.1257 36C23.1257 37.2595 23.6259 38.4675 24.5164 39.3582L24.5166 39.3584L37.5166 52.3584L37.5258 52.3676L37.5352 52.3767C38.431 53.2419 39.6309 53.7207 40.8763 53.7099C42.1218 53.6991 43.3131 53.1995 44.1938 52.3188C45.0745 51.4381 45.5741 50.2468 45.5849 49.0013C45.5957 47.7559 45.1169 46.556 44.2517 45.6602L44.2426 45.6508L44.2334 45.6416L34.5918 36L44.2334 26.3584ZM1.75 36C1.75 17.0847 17.0847 1.75 36 1.75C54.9153 1.75 70.25 17.0847 70.25 36C70.25 54.9153 54.9153 70.25 36 70.25C17.0847 70.25 1.75 54.9153 1.75 36Z" stroke="black" stroke-width="3"/>
</svg>
