<svg width="35" height="30" viewBox="0 0 35 30" fill="none" xmlns="http://www.w3.org/2000/svg">
<path d="M17.675 25.4223L17.5 25.5858L17.3075 25.4223C8.995 18.376 3.5 13.7166 3.5 8.99183C3.5 5.72207 6.125 3.26975 9.625 3.26975C12.32 3.26975 14.945 4.90463 15.8725 7.12807H19.1275C20.055 4.90463 22.68 3.26975 25.375 3.26975C28.875 3.26975 31.5 5.72207 31.5 8.99183C31.5 13.7166 26.005 18.376 17.675 25.4223ZM25.375 0C22.33 0 19.4075 1.32425 17.5 3.40054C15.5925 1.32425 12.67 0 9.625 0C4.235 0 0 3.94005 0 8.99183C0 15.1553 5.95 20.2071 14.9625 27.842L17.5 30L20.0375 27.842C29.05 20.2071 35 15.1553 35 8.99183C35 3.94005 30.765 0 25.375 0Z" fill="#F58634"/>
</svg>
